Coordinates
version=1
nRows=14
nColumns=40
inDegrees=yes

Units are S.I. units (second, meters, Newtons, ...)
Angles are in degrees.

endheader
time	pelvis_tilt	pelvis_list	pelvis_rotation	pelvis_tx	pelvis_ty	pelvis_tz	hip_flexion_r	hip_adduction_r	hip_rotation_r	knee_angle_r	knee_angle_r_beta	ankle_angle_r	subtalar_angle_r	mtp_angle_r	hip_flexion_l	hip_adduction_l	hip_rotation_l	knee_angle_l	knee_angle_l_beta	ankle_angle_l	subtalar_angle_l	mtp_angle_l	lumbar_extension	lumbar_bending	lumbar_rotation	arm_flex_r	arm_add_r	arm_rot_r	elbow_flex_r	pro_sup_r	wrist_flex_r	wrist_dev_r	arm_flex_l	arm_add_l	arm_rot_l	elbow_flex_l	pro_sup_l	wrist_flex_l	wrist_dev_l
     37.80500000	     -2.35639344	     -2.95857049	     -3.79361614	      1.07868483	      0.92869491	      0.39298424	     22.21883253	     -4.55341775	    -11.90894651	     13.82501142	     13.82501142	      0.66476454	      5.99756402	      5.60384527	      1.00234017	     -4.46578852	    -14.09357485	     13.16370527	     13.16370527	     14.51793695	     -5.50842013	     -9.02380040	     -9.73992679	      2.82061413	      1.60276269	     -5.83023725	    -15.35223359	    -11.15923154	     28.80955047	     46.95571751	      0.00000000	      0.00000000	     16.56121237	    -17.84773464	    -16.00625381	     70.75094455	     46.88158124	      0.00000000	      0.00000000
     37.81835714	     -2.34566209	     -2.84969623	     -3.89368390	      1.08040179	      0.92751523	      0.39535768	     21.99885443	     -4.39946836	    -11.98104586	     13.86920339	     13.86920339	      0.94165044	      6.20606152	      5.37329249	      0.43490494	     -4.46014506	    -14.18077647	     13.11077110	     13.11077110	     14.85328351	     -5.49826263	     -9.13745696	     -9.56098654	      2.79394508	      1.63636582	     -6.08984749	    -15.02898886	    -11.13210270	     28.75302481	     46.95019306	      0.00000000	      0.00000000	     16.62127599	    -18.01808317	    -16.17373101	     70.90146355	     46.89975385	      0.00000000	      0.00000000
     37.83171429	     -2.16594912	     -2.66032564	     -4.01912231	      1.08246011	      0.92668815	      0.39772499	     21.65526700	     -4.43891635	    -12.16387981	     14.28267106	     14.28267106	      1.12372739	      6.66443972	      4.13290409	     -0.52882677	     -4.31267755	    -14.47287221	     12.69000593	     12.69000593	     15.20857358	     -5.03224349	     -9.03102864	     -9.57346537	      2.67197049	      1.76074561	     -6.27572192	    -14.76285524	    -11.08722099	     28.82114620	     46.92872638	      0.00000000	      0.00000000	     16.58775386	    -17.87962858	    -16.67375158	     71.44782423	     46.95853177	      0.00000000	      0.00000000
     37.84507143	     -2.02339727	     -2.57494248	     -4.07238917	      1.08456147	      0.92582916	      0.40031259	     21.29498911	     -4.30651079	    -11.88468310	     14.70020345	     14.70020345	      0.58160905	      5.99769530	      0.70328510	     -1.20148169	     -4.35280375	    -14.54213123	     12.79177908	     12.79177908	     15.94469569	     -4.77933036	     -8.13184310	     -9.53896088	      2.66804714	      1.52304171	     -6.25131090	    -14.58254323	    -10.72206179	     28.96857883	     46.85436554	      0.00000000	      0.00000000	     16.24207612	    -17.80105954	    -17.67866122	     71.95268260	     47.08297404	      0.00000000	      0.00000000
     37.85842857	     -1.87498360	     -2.55782464	     -4.15605462	      1.08663548	      0.92521026	      0.40304783	     21.15507934	     -4.19419408	    -11.59549542	     15.74193525	     15.74193525	      1.16158092	      5.48789760	      0.02931798	     -1.92202435	     -4.46093808	    -14.59123232	     12.77436072	     12.77436072	     16.23496688	     -4.78722424	     -7.98068618	     -9.55276925	      2.75142138	      1.64693457	     -6.14996072	    -14.32633206	    -10.59694890	     28.97582618	     46.84011208	      0.00000000	      0.00000000	     16.12897805	    -17.78963683	    -17.74858814	     71.87472050	     47.09177972	      0.00000000	      0.00000000
     37.87178571	     -1.79550079	     -2.45685035	     -4.23961771	      1.08872188	      0.92460228	      0.40590774	     21.19735815	     -4.14413209	    -10.98325999	     16.99313200	     16.99313200	      1.70753337	      4.40074736	     -0.90927166	     -2.54408233	     -4.48429630	    -14.61574178	     12.79056176	     12.79056176	     16.60275527	     -4.79952227	     -7.44305167	     -9.47308211	      2.73319606	      1.73564096	     -6.02012647	    -14.02560112	    -10.37006593	     29.02829022	     46.81375185	      0.00000000	      0.00000000	     15.91447200	    -17.71273922	    -17.94400682	     71.71318135	     47.11038320	      0.00000000	      0.00000000
     37.88514286	     -1.68972487	     -2.60499946	     -4.25877781	      1.09091612	      0.92438292	      0.40892016	     20.89053379	     -3.85015217	    -10.73995927	     17.76388239	     17.76388239	      2.34849874	      3.99748271	     -1.37373383	     -3.14353955	     -4.82027925	    -14.55996201	     12.92524690	     12.92524690	     16.80970549	     -4.93232402	     -7.28609789	     -9.44606390	      2.99180509	      1.85274135	     -5.86175134	    -13.70800282	    -10.27582010	     29.10299007	     46.80265669	      0.00000000	      0.00000000	     15.56012273	    -17.49489477	    -17.94401233	     71.53402767	     47.10661720	      0.00000000	      0.00000000
     37.89850000	     -1.48057216	     -2.70470317	     -4.26135447	      1.09302789	      0.92435284	      0.41203471	     20.69528435	     -3.63232542	    -10.34082830	     18.92643632	     18.92643632	      3.05009063	      3.18562393	     -1.91973210	     -3.78698842	     -5.12503779	    -14.50350686	     13.17067984	     13.17067984	     16.99359703	     -5.07741945	     -7.00092143	     -9.57335097	      3.18936154	      1.95031063	     -5.54447579	    -13.50275102	    -10.17487515	     29.26475886	     46.78869333	      0.00000000	      0.00000000	     15.17376307	    -17.28646595	    -17.97650367	     71.25766752	     47.10365832	      0.00000000	      0.00000000
     37.91185714	     -1.56899047	     -2.56075665	     -4.26368953	      1.09468281	      0.92397797	      0.41543278	     21.08595452	     -3.41257573	     -8.80279185	     20.35930048	     20.35930048	      3.44795240	      0.36130636	     -2.54247276	     -3.83476632	     -5.26998406	    -14.38854045	     13.88556429	     13.88556429	     17.72734736	     -5.07616738	     -5.34892196	     -9.36634640	      3.04250265	      1.70595504	     -5.11862943	    -13.38512502	     -9.66810549	     29.81458981	     46.72005245	      0.00000000	      0.00000000	     14.79028135	    -17.30145260	    -18.50491681	     70.55548292	     47.13941330	      0.00000000	      0.00000000
     37.92521429	     -1.51542329	     -2.66456739	     -4.17093530	      1.09640738	      0.92411950	      0.41891821	     20.92067328	     -3.04195740	     -8.15300822	     21.15223445	     21.15223445	      3.90922807	     -1.05299008	     -2.90610521	     -3.91654007	     -5.77194764	    -14.37948073	     14.86225176	     14.86225176	     18.42191590	     -4.86787194	     -3.91686432	     -9.37258377	      3.19226684	      1.55256424	     -4.68421204	    -13.29096660	     -9.03442399	     30.50361406	     46.63607587	      0.00000000	      0.00000000	     14.33908738	    -17.17387248	    -18.82514593	     69.86127388	     47.16109999	      0.00000000	      0.00000000
     37.93857143	     -1.34689715	     -2.76096515	     -4.06801824	      1.09823978	      0.92472175	      0.42240288	     20.44507350	     -2.78378517	     -8.06519409	     21.63007874	     21.63007874	      4.46691916	     -1.35579016	     -3.15099272	     -4.29138069	     -6.19663512	    -14.27772660	     15.43345149	     15.43345149	     18.35662823	     -4.99116047	     -3.72423123	     -9.49767262	      3.32383797	      1.69333622	     -4.22825674	    -13.10280775	     -8.90727230	     30.79488709	     46.61643386	      0.00000000	      0.00000000	     13.83542162	    -16.77071225	    -18.72347850	     69.52228820	     47.14626466	      0.00000000	      0.00000000
     37.95192857	     -1.46554430	     -2.93324961	     -3.82417960	      1.09950665	      0.92490226	      0.42608917	     20.29611777	     -2.33100177	     -7.72984855	     22.06179329	     22.06179329	      4.88230978	     -2.53963830	     -3.12591571	     -3.73991384	     -6.95657222	    -14.08182362	     17.11881415	     17.11881415	     18.68220469	     -5.11652108	     -3.16901571	     -9.33417244	      3.54047949	      1.27595435	     -3.63849385	    -13.03521450	     -8.43856422	     31.87977908	     46.53414521	      0.00000000	      0.00000000	     13.26496690	    -16.85752813	    -18.79749158	     68.36998322	     47.13852376	      0.00000000	      0.00000000
     37.96528571	     -1.48842293	     -3.10446768	     -3.58243976	      1.10080981	      0.92541103	      0.42986191	     19.89130807	     -1.92061532	     -7.71379128	     22.21927980	     22.21927980	      5.32608387	     -3.08705537	     -3.10421755	     -3.30704029	     -7.71095965	    -13.86741978	     18.74213675	     18.74213675	     18.77620367	     -5.21575325	     -2.83422144	     -9.27926947	      3.70273541	      1.12555602	     -3.17799466	    -13.03441649	     -7.89310431	     33.06215384	     46.44285342	      0.00000000	      0.00000000	     12.80258579	    -16.68005907	    -18.72751290	     67.28287583	     47.12213569	      0.00000000	      0.00000000
     37.97864286	     -1.40350696	     -3.20178551	     -3.32295651	      1.10190947	      0.92615509	      0.43367552	     19.39760830	     -1.62001102	     -7.80160148	     22.40131594	     22.40131594	      5.78943607	     -3.46215876	     -2.99252106	     -2.84301589	     -8.43478545	    -13.65231442	     20.57629319	     20.57629319	     18.72923245	     -5.23669812	     -2.59312559	     -9.43248638	      3.78164574	      1.25925495	     -3.20514834	    -13.30747811	     -6.49851404	     35.51264213	     46.23279634	      0.00000000	      0.00000000	     12.73618803	    -16.42754148	    -18.43194492	     65.51175194	     47.09462367	      0.00000000	      0.00000000
